<!-- SPDX-License-Identifier: Apache-2.0 -->
<!-- Copyright Google LLC -->
<svg xmlns="http://www.w3.org/2000/svg" height="24px" viewBox="0 -960 960 960" width="24px" fill="#e3e3e3"><path d="M480-120q-75 0-140.3-28.5t-114.68-77.82Q176.69-275.63 148.35-341T119.13-480q0-75 28.5-140.3t77.82-114.68Q274.63-784.31 339-812.65T480-840q75 0 140.31 28.5t114.69 77.82Q784.31-684.38 812.66-619T841-480q0 75-28.5 140.3t-77.82 114.68Q684.38-176.69 619-148.35T480-120Zm0-60q61 0 115-23.5t93-63.5L266-689q-40 39-63 93t-23 116q0 125 87.5 212.5T480-180Zm214-71.76q39.2-40 62.6-93.62Q780-399 780-480q0-125-88-212.5T480-780q-80 0-140.74 34.06-60.74 34.05-97.7 88.17L694-254.76Z"/></svg>
