<!-- SPDX-License-Identifier: Apache-2.0 -->
<!-- Copyright Google LLC -->
<svg xmlns="http://www.w3.org/2000/svg" height="24px" viewBox="0 -960 960 960" width="24px" fill="#e3e3e3"><path d="M440-312.76 651.24-524l-64.38-64.76L440-441.14l-66.86-66.9-64.38 64.76L440-312.76Zm40 192.76q-75 0-140.31-28.5t-114.69-77.82Q176.69-275.63 148.35-341T120-480q0-75 28.24-140.31 28.23-65.3 77.53-114.21 49.29-48.92 114.81-77.2Q405.1-840 480.05-840 556-840 621-811.5t114.28 77.82Q784-684.38 812-619T840-480q0 75.05-28.35 140.6-28.36 65.54-77.65 114.33-49.29 48.78-114.4 76.92Q554.47-120 480-120Zm0-60q125 0 212.5-87.5T780-480q0-125-87.63-212.5T480-780q-125 0-212.5 87.63T180-480q0 125 87.5 212.5T480-180Zm0-300Z"/></svg>
