<!-- SPDX-License-Identifier: Apache-2.0 -->
<!-- Copyright Google LLC -->
<svg xmlns="http://www.w3.org/2000/svg" height="24px" viewBox="0 -960 960 960" width="24px" fill="#e3e3e3"><path d="M782.69-27.31 717-93q-12.46 10.08-30.5 16.04-18.04 5.96-40.5 5.96H292.78q-75.86 0-129.84-50.19T104.96-250.5q0-56.95 32.65-104.52 32.66-47.57 91.65-63.57-4.96-16.13-7.4-33.79-2.43-17.66-2.43-36.85 0-120.7 83.48-207 83.48-86.31 203.92-95.5 4.52-63.52 49.83-105.6 45.31-42.07 106.71-42.07 64.72 0 110.78 44.26 46.06 44.26 46.06 108.98 0 36.05-14.39 65.97-14.38 29.91-39.61 52.22 85.95 11.52 140.24 74.62T894.26-375q0 53.82-22.73 99.41-22.73 45.59-60.91 78.59l72.73 72.73-100.66 97.96ZM582.5-634.3q40.21-36.82 62.43-68.15Q667.16-734.77 667.16-765q0-32.58-22.43-54.79-22.42-22.21-55-22.21-32.57 0-55 22.43-22.43 22.43-22.43 55 0 7.33 1.16 13.03 1.17 5.7 3.17 11.95l-87.43-87.43q-78.17 9.8-133.12 64.38Q241.13-719.06 219.13-638.13q19.52-6.43 39.57-9.58 20.04-3.14 40.43-3.14 54.77 0 103.65 20 48.89 20 87.98 61 14.53-13 30.67-23.91 16.15-10.92 36.05-17.54ZM292.78-120H646.5q32.17 0 55.46-20.75Q725.24-161.5 728-195l-79-79H251q-60.13 0-103.08 42.59Q105-188.83 105-128.5q0 59.17 42.66 99.83Q190.32 12 249.54 12q14.25 0 30.12-3.49 15.86-3.49 33.12-10.79ZM584-374.5Zm160-95q0-75.3-50.35-118.04-50.35-42.74-118.04-42.74h-10.5q-15.91 0-30.29 2.57-14.39 2.58-30.57 7.11l239.75 239.75q0-8.5 1-17.43.99-8.92 1-19.22Z"/></svg>
