<?xml version="1.0" encoding="UTF-8"?>
<svg xmlns="http://www.w3.org/2000/svg"
     width="20" height="20"
     viewBox="0 0 5000 5000"
     preserveAspectRatio="xMidYMid meet"
     version="1.1"
     style="display:block; max-width:none;">
  <rect width="5000" height="5000" fill="#1f2230"/>

  <!-- Vertical mirror (top-bottom) -->
  <g transform="translate(0,5000) scale(1,-1)" stroke-linecap="round" stroke-linejoin="round">
    <!-- Shield (filled + visible pink outline) -->
    <path
      d="M2593 4582
         c278 -187 676 -358 1040 -447 221 -55 556 -105 695 -105 44 0 66 -5 83 -19
         l24 -19 -1 -299 c-5 -947 -155 -1592 -500 -2150 -288 -466 -724 -847 -1286 -1124
         l-148 -72 -134 65 c-687 338 -1212 863 -1484 1484 -214 487 -312 1061 -312 1831
         l0 262 24 19 c20 15 48 20 153 25 303 15 685 97 1011 218 181 66 469 209 612 303
         63 42 123 76 133 76 10 0 50 -22 90 -48z"
      fill="#2496ED"
      stroke="#ff79c6"
      stroke-width="1.4"
      vector-effect="non-scaling-stroke"/>

    <!-- Fin -->
    <path
      d="M2425 4319 c-77 -50 -360 -194 -490 -249 -303 -129 -624 -207 -1093 -266
         l-42 -5 0 -142 c0 -502 61 -963 180 -1354 58 -191 51 -180 132 -193 103 -18
         296 -8 380 19 118 38 174 89 292 268 187 285 313 440 517 638 219 212 415 357
         633 469 256 132 533 211 553 159 4 -10 -21 -70 -69 -162 -175 -336 -249 -608
         -235 -861 7 -123 27 -208 72 -307 78 -170 215 -245 450 -244 91 0 193 13 240 31
         18 7 30 33 63 137 126 391 177 734 189 1260 5 238 4 283 -8 286 -8 3 -91 14 -186 26
         -285 36 -622 122 -881 223 -125 50 -447 206 -546 266 -37 23 -73 42 -80 41 -6 0
         -38 -18 -71 -40z"
      fill="#8be9fd"/>
  </g>
</svg>
