<?xml version="1.0" encoding="UTF-8"?>
<svg xmlns="http://www.w3.org/2000/svg"
     width="32" height="32"
     viewBox="0 0 32 32"
     version="1.1">
  <!-- Dark background for contrast -->
  <rect width="32" height="32" fill="#1a1d2e" rx="4"/>
  
  <!-- Shield base (blue) -->
  <path
    d="M16 4 L8 8 L8 14 C8 20 11 24 16 28 C21 24 24 20 24 14 L24 8 Z"
    fill="#2496ED"
    stroke="#4AB8FF"
    stroke-width="0.5"/>
  
  <!-- Shark fin (cyan/white gradient effect) -->
  <path
    d="M16 10 L12 18 L14 18 C14 16 14.5 14 16 12 C17.5 14 18 16 18 18 L20 18 Z"
    fill="#8be9fd"
    opacity="0.95"/>
  
  <!-- Fin highlight for depth -->
  <path
    d="M16 10 L14.5 14 L15.5 14 C15.5 13 15.7 12 16 11 C16.3 12 16.5 13 16.5 14 L17.5 14 Z"
    fill="#f8f8f2"
    opacity="0.6"/>
  
  <!-- Lock/security accent at bottom -->
  <circle cx="16" cy="22" r="1.5" fill="#ff79c6" opacity="0.8"/>
  <rect x="15" y="22" width="2" height="2" rx="0.3" fill="#ff79c6" opacity="0.8"/>
</svg>
