<!-- SPDX-License-Identifier: Apache-2.0 -->
<!-- Copyright Google LLC -->
<svg xmlns="http://www.w3.org/2000/svg" height="24px" viewBox="0 -960 960 960" width="24px" fill="#e3e3e3"><path d="M480-120q-75 0-140.3-28.35t-114.68-77.64q-49.38-49.29-77.7-114.3Q120-405.3 120-480q0-121.93 70-218.63 70-96.7 182.52-130.37l-24.17-84.76 48.38-12.24 31.43 111.67q9.76 36 1.52 62t-40.34 38.83q-18.76 6.8-36.11 14.87-17.34 8.08-34.57 19.72-60.68 41.47-95.17 107.9Q220-514.57 220-439q0 107 76.5 182.5t183.5 75.5q118.32 0 200.75-88.18 82.42-88.18 74.79-206.5h60q8.38 146.32-95.2 251.75Q521.34-120 480-120Zm297-540-80-80 80-80 80 80-80 80Z"/></svg>
