<!-- SPDX-License-Identifier: Apache-2.0 -->
<!-- Copyright Google LLC -->
<svg xmlns="http://www.w3.org/2000/svg" height="24px" viewBox="0 -960 960 960" width="24px" fill="#e3e3e3"><path d="M782.69-27.84 535.69-275.08q-40 22.08-83.39 33.79-43.39 11.71-90.92 11.71-135.3 0-229.26-93.95-93.96-93.96-93.96-229.26 0-135.3 93.96-229.26 93.96-93.96 229.26-93.96 135.3 0 229.26 93.96Q684.61-688.8 684.61-553.5q0 48.78-12.76 94.65t-35.26 86.43l247.28 246.52-101.18 98.06ZM361.38-323.09q97.69 0 165.6-67.91 67.91-67.91 67.91-165.6 0-97.69-67.91-165.6t-165.6-67.91q-97.07 0-165.22 68.16-68.16 68.15-68.16 165.22 0 97.69 68.16 165.6 68.15 67.91 165.22 67.91Z"/></svg>
