<!-- SPDX-License-Identifier: Apache-2.0 -->
<!-- Copyright Google LLC -->
<svg xmlns="http://www.w3.org/2000/svg" height="24px" viewBox="0 -960 960 960" width="24px" fill="#e3e3e3"><path d="M441.24-360 312-489.24l62.24-62.24L441-485l147.52-147.52 62.24 62.24L441.24-360Zm38.75 240q-83 0-157.5-31.5T217.94-217.94Q174-261.88 142.5-336.38 111-410.88 111-494q0-83 31.38-157.5Q173.75-726 217.5-769.75T313-838q74.75-31 157.87-31Q554-869 628-838t125.02 68.75q53.02 53.75 84.5 128.25Q869-567.5 869-484v14q0 20-13.05 33Q842.9-424 822-424q-20 0-33-13t-13-33v-14q0-125-88.38-213.5Q599.25-786 474-786t-213.5 88.38Q172-609.25 172-484q0 125.25 88.38 213.63T474-182q75.68 0 137.62-32.36Q673.56-246.72 712-307q10.67-18 28-24.5t35-.08q17.67 6.58 26.56 24.47 8.88 17.88-.85 35.57-49.71 91.7-138.64 141.62-88.93 49.93-182.08 49.93Z"/></svg>
